# xmcd
#
# Track frame offsets: 
#        150
#        17164
#        35730
#        55369
#        62407
#
# Disc length: 1058 seconds
#
# Revision: 1
# Processed by: cddbd v1.5.2PL0 Copyright (c) Steve Scherf et al.
# Submitted via: ExactAudioCopyFreeDBPlugin 1.0
#
DISCID=3e042005
DTITLE=SCANDAL - 瞬間センチメンタル[初回生産限定盤]
DYEAR=2010
DGENRE=JPop
TTITLE0=瞬間センチメンタル
TTITLE1=星の降る夜に
TTITLE2=夢見る頃を過ぎても
TTITLE3=瞬間センチメンタル -「鋼の錬金術師 FULLMETAL ALCHEMIST」ED ver.-
TTITLE4=瞬間センチメンタル (Instrumental)
EXTD=
EXTT0=
EXTT1=
EXTT2=
EXTT3=
EXTT4=
PLAYORDER=
